Coordinates
version=1
nRows=9
nColumns=36
inDegrees=yes

Units are S.I. units (second, meters, Newtons, ...)
If the header above contains a line with 'inDegrees', this indicates whether rotational values are in degrees (yes) or radians (no).

endheader
time	pelvis_tilt	pelvis_list	pelvis_rotation	pelvis_tx	pelvis_ty	pelvis_tz	hip_flexion_r	hip_adduction_r	hip_rotation_r	knee_angle_r	knee_angle_r_beta	ankle_angle_r	subtalar_angle_r	mtp_angle_r	hip_flexion_l	hip_adduction_l	hip_rotation_l	knee_angle_l	knee_angle_l_beta	ankle_angle_l	subtalar_angle_l	mtp_angle_l	lumbar_extension	lumbar_bending	lumbar_rotation	arm_flex_r	arm_add_r	arm_rot_r	elbow_flex_r	pro_sup_r	arm_flex_l	arm_add_l	arm_rot_l	elbow_flex_l	pro_sup_l
      2.31666670	     -4.16197065	     -9.24651804	     17.22532511	      0.46772978	      1.12776717	     -0.19729320	     15.74461379	     -2.70725712	      2.85933853	     14.49618758	      0.25300620	    -14.36958877	      4.86049761	     -7.49999954	     13.84183175	    -11.93911920	    -33.52575231	      5.54635954	      0.09680224	    -45.23335848	    -24.95575250	     -7.49999954	     -6.20552723	      9.00930697	      4.16772508	    -12.52420758	    -20.06465419	      7.34542578	    113.29634095	     87.48287979	    -12.12408366	    -14.16124007	     26.16731894	    114.59421873	     90.07328043
      2.33333330	     -3.43003113	     -8.57059475	     16.94150202	      0.47352032	      1.15546240	     -0.20003756	     14.44569578	     -3.22167531	      3.24948914	     13.59105774	      0.23720871	    -13.41283879	      4.44521833	     -7.49999959	     13.25200449	    -10.70176455	    -30.11828943	      5.25821922	      0.09177324	    -42.80649165	    -20.07085173	     -7.49999959	     -6.26563684	      8.70076360	      4.33157050	    -13.05234643	    -18.76835635	      8.05018918	    111.12157918	     86.21357502	    -13.03631381	    -13.12670189	     25.24961443	    112.31510279	     88.46674468
      2.35000000	     -2.96635677	     -7.54507412	     16.52850420	      0.47227365	      1.17217795	     -0.20006017	     13.93510386	     -4.01675959	      4.06643822	     13.45835958	      0.23489269	    -11.95115265	      2.85145336	     -7.49999966	     12.86267992	     -9.34682918	    -26.24993550	      6.16900019	      0.10766936	    -39.91749842	    -16.06755041	     -7.49999966	     -6.66771845	      7.76480490	      3.61230491	    -12.46661337	    -17.57780248	      9.75955412	    108.73873160	     88.73308075	    -14.55743989	    -12.30157357	     22.97983628	    111.55356795	     90.26266178
      2.36666670	     -2.59234676	     -6.45230077	     15.94667778	      0.47038524	      1.18933766	     -0.20003411	     13.55925627	     -4.83616647	      4.23804176	     13.52714169	      0.23609316	    -11.24026766	      1.06095891	     -7.49999973	     12.42955939	     -8.04466924	    -22.52959456	      7.32162290	      0.12778643	    -36.97680680	    -12.34627398	     -7.49999973	     -6.87209845	      6.61226003	      3.66892904	    -12.01906080	    -16.44371343	     10.61306349	    107.13219063	     89.27774863	    -14.50426608	    -11.68687993	     21.99227865	    110.87574075	     90.13760110
      2.38333330	     -2.34188896	     -5.37214645	     15.26459904	      0.47376107	      1.20588105	     -0.20279127	     13.00621369	     -5.69518872	      4.54922032	     13.01732582	      0.22719520	    -10.28572704	      0.13603982	     -7.49999974	     11.99666312	     -6.74908252	    -20.31605238	      8.15433416	      0.14231998	    -34.55938035	    -10.07657898	     -7.49999974	     -7.05739130	      5.52433298	      4.03287424	    -11.68998355	    -15.42918268	     11.10081017	    105.62824215	     87.53579851	    -14.52006493	    -11.21990207	     21.38122855	    110.25924162	     88.00016905
      2.40000000	     -2.23602738	     -4.57554766	     14.49783142	      0.47310126	      1.20996692	     -0.20215574	     12.97371988	     -6.17456096	      4.73754719	     12.81712504	      0.22370103	     -9.58228272	     -1.04612066	     -7.49999978	     11.52338397	     -5.68548141	    -18.05518275	      8.45709995	      0.14760424	    -32.26612938	     -8.21091504	     -7.49999978	     -6.96846116	      4.63603457	      4.44111755	    -11.12248526	    -14.67275365	     11.40949330	    104.55442285	     88.59749666	    -14.31176584	    -10.93157956	     20.80479123	    110.83821962	     88.47183741
      2.41666670	     -2.30107694	     -4.05799154	     13.74012223	      0.47340205	      1.21824730	     -0.20168605	     13.30964461	     -6.56120422	      4.37830407	     12.72636817	      0.22211703	     -9.06240837	     -1.61676898	     -7.49999978	     11.17267131	     -4.85976458	    -16.14461630	      8.42908015	      0.14711520	    -30.71740451	     -7.61754310	     -7.49999978	     -6.76783480	      4.00313794	      5.04096535	    -10.73114267	    -14.13080711	     11.60214859	    104.40197338	     88.58245754	    -13.74281134	    -10.71760209	     20.68685389	    111.28876198	     88.43935979
      2.43333330	     -2.27077675	     -3.72057760	     12.93699203	      0.47359829	      1.22159313	     -0.20113700	     13.63717692	     -6.62599575	      4.11277099	     12.62459037	      0.22034067	     -9.18640827	     -2.52722775	     -7.49999981	     10.89718752	     -4.50375745	    -14.81411834	      8.71171128	      0.15204805	    -28.80715943	     -6.24425808	     -7.49999981	     -6.79922954	      3.50564443	      5.77550469	    -10.14789794	    -13.74836408	     11.46471700	    104.76700523	     88.92776469	    -12.68641435	    -11.04628480	     21.27562005	    111.94040232	     88.15732498
      2.45000000	     -2.33987478	     -3.51036521	     12.37405852	      0.47371605	      1.22358485	     -0.19991835	     13.94300025	     -6.61200341	      3.68233596	     12.12109925	      0.21155309	     -9.31415296	     -2.48262611	     -7.49999982	     10.78242452	     -4.24951212	    -13.63549901	      8.63917684	      0.15078208	    -27.49722140	     -5.70674498	     -7.49999982	     -6.75872076	      3.22643744	      6.05522862	     -9.10341125	    -13.67211060	     12.24189406	    105.29934932	     86.74837935	    -11.81319914	    -11.36656542	     21.58619489	    112.49822955	     85.92992870
